<svg width="200" height="56" viewBox="0 0 200 56" fill="none" xmlns="http://www.w3.org/2000/svg">
<path d="M35.9223 0L200 0L166.99 54H0L35.9223 0Z" fill="#E1E8F0"/>
<path d="M42.9292 38.3314L38.5247 38.3757L38.1659 38.4623L43.3511 38.4605C43.1895 38.4373 43.0652 38.4249 42.9292 38.3314Z" fill="#37CDE4"/>
<path d="M27.1165 38.5064C25.9941 38.4325 24.8629 38.4112 23.7384 38.3807C23.2891 38.3685 22.8631 38.4144 22.4162 38.3423L22.3587 38.377L22.5741 38.5087C22.6702 38.4876 22.6531 38.4725 22.7452 38.5271L25.9529 38.6071L27.3872 38.6019L27.1165 38.5064Z" fill="#FFFFFE"/>
<path d="M50.6401 42.2582C49.5915 42.2721 48.5449 42.2955 47.4955 42.299C46.8185 42.3013 46.0946 42.2538 45.4247 42.3335L45.9345 42.3495L47.5008 42.4318L50.4132 42.5091L50.6401 42.2582Z" fill="#37CDE4"/>
<path d="M24.8445 48.9122L23.8568 48.8679C24.8572 49.3171 25.9802 49.5942 27.0578 49.7921L27.1304 49.7551C26.8311 49.4676 26.3392 49.3158 25.947 49.1882C25.7944 49.1386 25.6094 49.1099 25.4783 49.016C25.3568 48.9291 25.0092 48.9388 24.8445 48.9122Z" fill="#1490B7"/>
<path d="M17.5241 39.3816C17.3481 39.378 17.1156 39.3445 16.9537 39.4157L16.8676 39.5429C16.8185 39.4958 16.7809 39.4546 16.7387 39.4003C16.0376 39.4273 15.3816 39.4946 14.6874 39.5968C14.3493 39.6466 14.0494 39.6588 13.7291 39.7891L19.2119 39.6412C18.9149 39.6079 18.6068 39.6095 18.308 39.5984C18.1784 39.5936 18.0273 39.6125 17.9178 39.5354L17.9634 39.4894C17.8513 39.4014 17.6672 39.4024 17.5241 39.3816Z" fill="#37CDE4"/>
<path d="M47.9268 44.9382C46.846 44.9734 45.7675 44.9818 44.6862 44.9849C43.8417 44.9874 42.8895 44.9262 42.0643 45.1052L44.4284 45.1651L47.4298 45.2809C47.6062 45.182 47.7646 45.0581 47.9268 44.9382Z" fill="#37CDE4"/>
<path d="M17.2454 37.8998L17.1658 38.1063L17.36 38.1104C18.7029 38.1091 20.0458 38.1096 21.3887 38.1123C21.8367 38.1132 22.2847 38.112 22.7326 38.1127C23.0434 38.1132 23.3372 38.0987 23.639 38.1823L23.6686 38.1899L25.5166 38.1228L25.5144 38.0759L17.2454 37.8998Z" fill="#37CDE4"/>
<path d="M53.5874 37.8765C52.8651 37.7257 52.0166 37.7723 51.2753 37.7539C49.4762 37.7093 47.6788 37.6953 45.8791 37.7025L45.8868 37.7292C46.349 37.7338 46.9587 37.6593 47.3937 37.7986C47.5751 37.8567 47.7897 37.8547 47.9791 37.8797C48.8815 37.9988 49.8168 37.9638 50.7262 37.9637C51.6468 37.9636 52.5674 37.974 53.4879 37.9842L53.5874 37.8765Z" fill="#FFFFFE"/>
<path d="M50.4131 42.5091L47.5007 42.4318L48.2902 42.5224L46.6536 42.6081L46.1806 42.6396L46.2741 42.6834C46.1548 42.7595 46.1206 42.7674 45.981 42.7886L45.5831 42.8789C46.1711 42.8715 49.8172 42.7501 50.0378 42.8996C50.1816 42.7898 50.2948 42.6446 50.4131 42.5091Z" fill="#FFFFFE"/>
<path d="M17.2577 40.3043L17.2709 40.2259C17.3686 40.2013 17.4555 40.1713 17.5481 40.1317C17.2213 40.0658 16.8547 40.0927 16.5205 40.0914C15.468 40.1018 14.4192 40.0989 13.3675 40.1374C13.1209 40.1466 12.6778 40.0883 12.4626 40.1807L12.5407 40.3247L17.1546 40.4874C17.2003 40.431 17.2259 40.369 17.2577 40.3043Z" fill="#1490B7"/>
<path d="M18.7321 46.0278L18.0339 46.0229C19.4482 47.0559 21.0909 47.8257 22.714 48.4808L22.8195 48.4498C22.9052 48.4122 22.9144 48.3906 23.0176 48.3834L23.0916 48.3814C22.8103 48.0826 22.3653 47.9299 22.0002 47.7487C21.4231 47.4621 20.8619 47.1574 20.2968 46.8488C19.8835 46.6231 19.3507 46.3724 19.0296 46.0317L18.7321 46.0278Z" fill="#1490B7"/>
<path d="M16.6694 37.4535L10.877 37.4667L11.2131 38.1292L16.615 38.1176C16.6029 37.9048 16.6487 37.6673 16.6694 37.4535Z" fill="url(#paint0_linear_2_66)"/>
<path d="M25.5078 41.7483C25.0548 41.5465 24.5636 41.4458 24.0848 41.3222C22.6226 40.9448 21.1252 40.6615 19.6256 40.4779C19.6787 40.5886 19.7326 40.6952 19.7652 40.814C20.4031 41.2738 21.18 41.5984 21.7414 42.1557C22.1214 42.1882 22.5316 42.1455 22.9114 42.1201C23.8062 42.0605 24.6318 41.9337 25.5078 41.7483Z" fill="#37CDE4"/>
<path d="M45.3416 42.8888C44.4235 42.8794 43.3671 42.8074 42.4703 43.0085C41.1796 43.2979 39.9962 43.8041 38.8859 44.5203C39.155 44.5364 39.4242 44.5521 39.6934 44.5667C39.828 44.574 39.9964 44.5612 40.1216 44.6106L42.1887 44.7064C42.3985 44.5288 42.6537 44.4192 42.8959 44.2914C43.3906 44.0305 43.8824 43.8078 44.3439 43.4882C44.6604 43.269 44.9409 42.9281 45.3416 42.8888Z" fill="#37CDE4"/>
<path d="M12.0041 38.3353L11.316 38.3008C11.6043 38.8188 11.8796 39.3625 12.2294 39.8431L13.7289 39.7891C14.0492 39.6589 14.3491 39.6466 14.6872 39.5968C15.3814 39.4946 16.0374 39.4273 16.7385 39.4003L16.6257 39.1132C16.5821 38.8502 16.5772 38.5956 16.5742 38.3299L12.0041 38.3353Z" fill="#1490B7"/>
<path d="M16.5742 38.3298L12.0041 38.3352L12.0692 38.3411C12.654 38.3911 13.2525 38.3717 13.8396 38.3782C14.01 38.3801 14.2868 38.3477 14.4462 38.3926C14.5025 38.4085 14.527 38.4458 14.5669 38.4834C14.7728 38.6776 15.2627 38.6767 15.5384 38.7598C15.8762 38.8618 16.276 39.1141 16.6257 39.1132C16.5821 38.8502 16.5772 38.5956 16.5742 38.3298Z" fill="#1490B7"/>
<path d="M19.6255 40.478L17.2577 40.3043C17.2259 40.369 17.2002 40.431 17.1546 40.4874L17.5234 40.6336C17.7691 41.1598 18.2042 41.6142 18.5276 42.0995C18.2295 42.0669 17.6917 42.0679 17.4354 41.927L14.3461 41.9915L14.289 42.0429C14.3691 42.1244 14.4347 42.1528 14.5414 42.1932L14.627 42.3963C14.9344 42.4754 15.4127 42.42 15.7347 42.4189C16.5877 42.4159 17.4485 42.4099 18.3001 42.3604C19.315 42.3014 20.3261 42.1969 21.3435 42.1988L21.7412 42.1558C21.1798 41.5985 20.4029 41.2738 19.7651 40.814C19.7325 40.6953 19.6785 40.5887 19.6255 40.478Z" fill="#37CDE4"/>
<path d="M17.1546 40.4875L12.5406 40.3247C13.0222 41.0365 13.4506 41.7902 14.0842 42.3876L14.627 42.3964L14.5414 42.1932C14.4347 42.1528 14.3691 42.1244 14.289 42.0429L14.3461 41.9916L17.4354 41.9271C17.6916 42.068 18.2294 42.067 18.5276 42.0995C18.2042 41.6143 17.7691 41.1599 17.5234 40.6337L17.1546 40.4875Z" fill="#091E3B"/>
<path d="M18.5276 42.0995C18.2042 41.6143 17.7691 41.1599 17.5234 40.6337L14.4531 40.742C15.1546 40.9983 15.8691 41.2302 16.5633 41.5042C16.8409 41.6137 17.206 41.7395 17.4354 41.9271C17.6916 42.068 18.2294 42.067 18.5276 42.0995Z" fill="#1490B7"/>
<path d="M50.6604 38.0976C48.6812 38.0275 46.6562 38.0533 44.6786 38.1501C44.0942 38.1788 43.5107 38.3249 42.9292 38.3314C43.0652 38.4248 43.1895 38.4372 43.3511 38.4604L43.7115 38.4663C44.3996 38.4661 45.1035 38.435 45.7857 38.5311L44.408 38.7373C43.6809 38.9255 42.9314 39.0567 42.2153 39.2798C41.9742 39.3549 41.68 39.4281 41.5009 39.6094L46.1255 39.7804C46.6306 39.4347 47.3819 39.2012 47.9634 39.0054C48.2609 38.9052 48.6351 38.8377 48.8922 38.6578C49.0463 38.5502 49.1835 38.5253 49.3587 38.4659C49.7912 38.3191 50.2234 38.2227 50.6604 38.0976Z" fill="#37CDE4"/>
<path d="M17.0653 38.3128C17.012 38.4385 16.9699 38.5397 16.9624 38.6783C16.9067 38.9128 16.9139 39.1782 16.9535 39.4157C17.1154 39.3445 17.3479 39.3781 17.5239 39.3816C17.6669 39.4024 17.8511 39.4014 17.9631 39.4894L17.9176 39.5355C18.0271 39.6125 18.1782 39.5936 18.3077 39.5984C18.6065 39.6095 18.9146 39.608 19.2117 39.6412L22.0498 39.6045L24.4673 39.5218L24.4547 39.3754C24.3417 39.2219 24.1168 39.1437 23.9432 39.0712C23.4882 38.881 23.0052 38.7482 22.5738 38.5087L22.3585 38.377C21.9786 38.272 21.4765 38.3187 21.0817 38.3145C20.2683 38.306 19.4549 38.298 18.6414 38.2957L17.0653 38.3128Z" fill="#37CDE4"/>
<path d="M16.9624 38.6783C16.9067 38.9128 16.9138 39.1783 16.9535 39.4157C17.1153 39.3445 17.3479 39.3781 17.5239 39.3816C17.6669 39.4024 17.851 39.4014 17.9631 39.4894L17.9176 39.5355C18.0271 39.6125 18.1782 39.5937 18.3077 39.5984C18.6065 39.6095 18.9146 39.608 19.2117 39.6413L22.0498 39.6045C21.8209 39.4486 21.4472 39.4133 21.1764 39.348C19.7852 39.0128 18.4087 38.7371 16.9687 38.7521L16.9624 38.6783Z" fill="#37CDE4"/>
<path d="M16.9625 38.6783C16.9068 38.9128 16.9139 39.1783 16.9536 39.4157C17.1154 39.3445 17.348 39.3781 17.524 39.3816L18.1948 39.3597C18.1549 39.2575 18.0764 39.2204 17.9812 39.1703C17.8425 39.0971 17.674 39.0189 17.5164 38.9983C17.3546 38.9771 17.1107 39.0035 16.9748 38.9195L16.9688 38.7521L16.9625 38.6783Z" fill="#1490B7"/>
<path d="M53.468 38.0474L50.6604 38.0976C50.2234 38.2227 49.7912 38.3191 49.3587 38.4659C49.1835 38.5253 49.0462 38.5502 48.8922 38.6578C48.6351 38.8377 48.2609 38.9052 47.9634 39.0054C47.3818 39.2012 46.6306 39.4347 46.1255 39.7804L52.356 39.9472L53.468 38.0474Z" fill="#1490B7"/>
<path d="M50.0378 42.8996C49.8172 42.7502 46.1711 42.8715 45.5832 42.8789L45.3416 42.8888C44.9409 42.928 44.6604 43.269 44.3439 43.4881C43.8825 43.8077 43.3906 44.0304 42.8959 44.2914C42.6538 44.4191 42.3985 44.5287 42.1887 44.7063L48.0869 44.7886C48.7885 44.2412 49.4262 43.5438 50.0378 42.8996Z" fill="#1490B7"/>
<path d="M22.032 42.9995C21.08 42.8349 20.1417 42.8059 19.1775 42.7866C19.6078 43.4434 20.2542 44.116 20.8973 44.5701L21.609 45.0523L21.4437 45.1132C23.1702 45.1235 24.9322 45.0457 26.6446 44.8313C27.2033 44.7614 27.7495 44.7118 28.3018 44.595C27.2098 44.3965 26.1368 44.2494 25.0675 43.9393C24.3957 43.7444 23.7612 43.4592 23.0981 43.2466C22.7513 43.1354 22.3888 43.0703 22.032 42.9995Z" fill="#37CDE4"/>
<path d="M19.1776 42.7866L14.4319 42.7535L14.7603 43.1244C15.2206 43.6061 15.6995 44.1569 16.2346 44.5573C16.4225 44.725 16.6051 44.9078 16.8242 45.0352L18.9604 45.0838L21.4438 45.1132L21.6091 45.0523L20.8974 44.5701C20.2543 44.116 19.6079 43.4434 19.1776 42.7866Z" fill="#1490B7"/>
<path d="M19.3235 44.0769C18.3434 43.9834 17.268 43.8711 16.3138 43.6292C15.9827 43.5452 15.6453 43.4506 15.3237 43.3363C15.1389 43.2706 14.9539 43.1462 14.7601 43.1244C15.2204 43.6061 15.6993 44.1568 16.2344 44.5573C16.5213 44.3935 16.9693 44.3836 17.293 44.3386C17.9693 44.2445 18.6453 44.1564 19.3235 44.0769Z" fill="#091E3B"/>
<path d="M52.2004 40.1848L51.5345 40.1978C50.8907 40.2756 50.2117 40.2337 49.5617 40.2334C48.4923 40.2329 47.4231 40.2359 46.3537 40.2437C45.7716 40.6778 45.1411 41.0596 44.503 41.4082C44.2191 41.5632 43.908 41.6833 43.6403 41.8641L43.9275 41.9181L50.7291 42.125C50.9371 41.9568 51.0972 41.7106 51.2572 41.4986C51.5824 41.0679 51.8979 40.6313 52.2004 40.1848Z" fill="#1490B7"/>
<path d="M45.966 31.3056L45.8634 31.3274C45.3867 30.9988 45.0112 30.7943 44.4142 30.9087L44.2106 30.966C43.408 31.2009 42.8168 31.7517 42.2163 32.303C42.04 32.4649 41.8923 32.6493 41.6806 32.7703C41.3187 32.9771 40.923 33.0521 40.5353 33.1875C40.1282 33.3298 39.7106 33.5207 39.3234 33.7095C38.2147 34.2499 37.2243 35.0004 36.1074 35.5301C36.1573 35.5456 36.205 35.5735 36.2572 35.5763C36.3715 35.5826 36.6555 35.4784 36.7737 35.4478C37.5089 35.2574 38.2279 35.0064 38.9589 34.803C39.5131 34.6488 40.0684 34.526 40.6403 34.4591C41.0503 34.411 41.46 34.394 41.8698 34.4545C42.1005 34.4885 42.3433 34.5537 42.5628 34.6299C42.7043 34.679 42.8436 34.7677 42.9968 34.7429C43.1001 34.3487 43.1678 33.9665 43.3609 33.6006L43.3943 33.5389L43.6532 33.1235C44.1445 32.456 44.9741 31.9143 45.8068 31.783C46.0542 31.7441 46.3088 31.7864 46.5524 31.7445L46.6177 31.7325L46.5755 31.7067L46.3277 31.6929C46.185 31.6531 46.1147 31.6427 45.9581 31.6471L45.8888 31.6922L45.8191 31.6694C45.8574 31.5554 45.9204 31.47 45.9894 31.373L45.966 31.3056Z" fill="#FFFFFE"/>
<path d="M23.541 45.9908L19.0296 46.0316C19.3507 46.3723 19.8835 46.623 20.2967 46.8487C20.8619 47.1573 21.4231 47.462 22.0002 47.7486C22.3653 47.9298 22.8103 48.0825 23.0915 48.3813L23.0176 48.3833C22.9144 48.3905 22.9052 48.4121 22.8195 48.4497L22.7139 48.4807C22.9654 48.5079 23.2227 48.449 23.4726 48.4175C23.8227 48.3733 24.1736 48.3363 24.5238 48.2922C25.7671 48.1361 27.0106 47.9722 28.2575 47.8455C28.3767 47.7764 28.6576 47.7755 28.8 47.7563C29.2203 47.6993 29.6388 47.6349 30.0574 47.5674C28.8031 47.3329 27.5581 47.1995 26.3223 46.8588C25.8106 46.7177 25.3085 46.5482 24.8108 46.3651C24.4919 46.2478 24.1561 46.0895 23.819 46.0382L23.541 45.9908Z" fill="#37CDE4"/>
<path d="M54.9192 34.4792C52.5647 34.5844 50.4639 35.4374 48.368 36.4446C47.4853 36.8688 46.6087 37.3422 45.6606 37.6109L45.8791 37.7025C47.6788 37.6953 49.4762 37.7094 51.2753 37.754C52.0166 37.7724 52.8651 37.7258 53.5874 37.8765L54.9192 34.4792Z" fill="#FDC13E"/>
<path d="M47.0847 45.5558L42.7958 45.5748L42.7476 45.5828C41.8989 45.7189 41.0446 45.7638 40.1927 45.9208C38.5862 46.2167 36.9033 46.7457 35.4123 47.4057C35.1703 47.5128 34.8694 47.6029 34.665 47.771L39.6759 47.7292C40.2741 47.7154 40.8733 47.7178 41.4718 47.719C41.9748 47.72 42.5806 47.7144 43.0583 47.8833C44.4543 47.3001 45.8814 46.4624 47.0847 45.5558Z" fill="url(#paint1_linear_2_66)"/>
<path d="M17.1108 36.1191C16.4576 35.7845 15.7339 35.5526 15.0346 35.331C13.7647 34.9286 12.4609 34.6055 11.1542 34.3434C10.6297 34.2382 10.0773 34.0958 9.54179 34.0806C9.88918 35.2655 10.3246 36.3609 10.877 37.4666L16.6694 37.4534C16.7567 36.9844 16.9339 36.5612 17.1108 36.1191Z" fill="#FDC13E"/>
<path d="M25.9529 38.6071L22.7452 38.5271C22.6531 38.4725 22.6702 38.4876 22.5741 38.5087C23.0054 38.7482 23.4884 38.881 23.9435 39.0712C24.117 39.1437 24.3419 39.2219 24.4549 39.3754L24.4675 39.5218C24.7899 39.608 25.2494 39.5526 25.5868 39.5513C26.7407 39.5468 27.8927 39.5033 29.0463 39.4927C30.4388 39.48 31.8363 39.4941 33.2286 39.5241C34.2124 39.5453 35.1948 39.6136 36.177 39.6371C37.4372 39.667 38.7024 39.6494 39.963 39.6491C40.3272 39.6489 40.692 39.6519 41.0562 39.6443C41.1903 39.6414 41.3774 39.6608 41.5011 39.6094C41.6802 39.4281 41.9744 39.355 42.2155 39.2798C42.9316 39.0568 43.6811 38.9255 44.4082 38.7373C44.2849 38.6518 44.1514 38.6345 44.007 38.6055C41.7707 38.5092 39.5281 38.7121 37.2936 38.7733C34.8713 38.8396 32.4445 38.7702 30.0212 38.7802C29.2392 38.7834 28.4562 38.7795 27.6742 38.7923C26.9845 38.8035 26.2728 38.8325 25.5866 38.7598C25.8771 38.6956 26.2476 38.7358 26.5468 38.736C27.1812 38.7366 27.8155 38.737 28.4498 38.7372C31.3588 38.7385 34.2854 38.8058 37.1924 38.7399C37.2913 38.7376 37.3504 38.6905 37.4438 38.6889C37.8303 38.6818 38.218 38.7011 38.6045 38.694C38.6874 38.6925 38.74 38.645 38.8208 38.6433C39.1362 38.6363 39.4529 38.6554 39.7682 38.6484C39.8356 38.6469 39.8684 38.6127 39.9297 38.6003C40.1133 38.563 40.4073 38.5979 40.5995 38.6003L40.5896 38.5644C39.7139 38.5436 38.8378 38.5659 37.962 38.5537C37.7668 38.5511 37.5834 38.502 37.3807 38.5038C37.1777 38.5054 36.9938 38.5581 36.781 38.5571C36.4602 38.5557 36.156 38.5074 35.8377 38.5052C35.4308 38.5025 35.0214 38.4965 34.6145 38.506C34.5208 38.5081 34.4619 38.5547 34.3687 38.5564C33.2032 38.5772 32.0353 38.5312 30.8698 38.5519C30.7788 38.5536 30.7212 38.6004 30.6311 38.6015C30.4751 38.6034 30.2622 38.5689 30.1133 38.6003C30.0536 38.6128 30.0184 38.6458 29.9533 38.6476C29.2063 38.6677 28.4554 38.6229 27.7084 38.6431C27.628 38.6453 27.5731 38.6914 27.4894 38.6935C27.2338 38.7003 27.0115 38.6683 26.764 38.6459C26.4944 38.6216 26.2169 38.6789 25.9529 38.6071Z" fill="#FFFFFE"/>
<path d="M43.0581 47.8832C42.5804 47.7143 41.9746 47.72 41.4717 47.719C40.8732 47.7178 40.2739 47.7153 39.6757 47.7291L41.0359 47.7699C39.4116 48.321 37.7901 48.3933 36.0885 48.4946C34.1926 48.6074 32.2983 48.6449 30.4011 48.7162C28.557 48.7855 26.6878 48.9428 24.8444 48.9122C25.0091 48.9387 25.3567 48.929 25.4782 49.016C25.6093 49.1098 25.7943 49.1385 25.9469 49.1881C26.3391 49.3157 26.831 49.4676 27.1303 49.755L27.0577 49.792C28.0041 50.0577 29.0864 50.1533 30.0649 50.2312C34.5453 50.5881 38.9947 49.7924 43.0581 47.8832Z" fill="#37CDE4"/>
<path d="M51.5347 40.1977C51.0381 40.1251 50.4709 40.1736 49.9667 40.1741C48.5396 40.1753 47.0999 40.2458 45.6753 40.2087C44.9214 40.189 44.1659 40.1207 43.4119 40.0903C42.0305 40.0348 40.6409 40.0289 39.2583 40.0103C38.5945 40.0012 37.9319 39.9652 37.2679 39.9673C36.7694 39.9689 36.2941 40.0715 35.8015 40.1225C35.4088 40.1633 35.0097 40.1588 34.6153 40.1552C33.8923 40.1486 33.1756 40.0637 32.4543 40.0312C31.1954 39.9745 29.9277 39.9535 28.6673 39.9325C25.9762 39.8876 23.2931 39.9879 20.6027 40.0234C20.4831 40.054 20.3688 40.0771 20.2474 40.0982L20.1737 40.1141C20.0861 40.1281 20.0446 40.1105 19.9621 40.0927C19.6363 40.0225 19.2215 40.0621 18.8879 40.0593L18.911 40.0826C19.0112 40.0826 19.0919 40.056 19.165 40.1282C19.3288 40.1275 19.4874 40.1262 19.6501 40.1394C19.774 40.1493 19.8144 40.0996 19.9272 40.1738C20.2326 40.1743 20.5347 40.2113 20.828 40.265C20.9737 40.2917 21.0902 40.2248 21.2207 40.3106C21.3822 40.3106 21.6437 40.2697 21.775 40.3562C21.9595 40.3562 22.3218 40.3056 22.468 40.4018C23.2256 40.4028 24.0173 40.3728 24.7546 40.493C25.2616 40.5756 25.8125 40.4893 26.3252 40.5842C26.7378 40.6605 27.2002 40.5977 27.6187 40.6754C27.7951 40.7081 27.9947 40.6639 28.173 40.6913C28.8562 40.7963 29.5818 40.7622 30.2518 40.9034C30.3746 40.9293 30.539 40.9085 30.6668 40.9131C30.8548 40.9199 31.0808 40.9676 31.2681 40.9945C31.4029 41.014 31.5492 40.9858 31.6839 41.0058C33.0272 41.2047 34.4027 41.2382 35.749 41.4505C36.3707 41.5486 37.0237 41.5185 37.643 41.6329C37.998 41.6986 38.4047 41.6322 38.7632 41.7117C38.9639 41.7562 39.2103 41.6844 39.3984 41.7531C39.5818 41.82 39.8112 41.707 39.9759 41.8153C40.339 41.8206 40.7209 41.8668 41.0579 41.7385L41.1645 41.722L43.9277 41.918L43.6405 41.864C43.9082 41.6833 44.2192 41.5631 44.5031 41.4081C45.1413 41.0595 45.7718 40.6777 46.3539 40.2436C47.4233 40.2358 48.4925 40.2328 49.5619 40.2333C50.2119 40.2336 50.8909 40.2755 51.5347 40.1977Z" fill="#FFFFFE"/>
<path d="M46.3538 40.2436C46.0781 40.2383 45.7817 40.2214 45.5086 40.2602C45.1543 40.3104 44.7924 40.4161 44.4401 40.4872C43.6921 40.6383 42.9448 40.7971 42.1931 40.9285C41.0594 41.1266 39.8774 41.2208 38.7616 41.4959L41.1644 41.722L43.9275 41.918L43.6404 41.864C43.908 41.6833 44.2191 41.5632 44.503 41.4081C45.1411 41.0595 45.7716 40.6777 46.3538 40.2436Z" fill="#37CDE4"/>
<path d="M14.2001 32.9068C13.7675 31.7246 13.1347 30.7097 11.9348 30.1588C11.1827 29.8135 10.2009 29.6752 9.39439 29.8757L9.3166 29.8944L8.75717 30.0877L9.39984 33.5717L9.54175 34.0806C10.0772 34.0959 10.6296 34.2383 11.1541 34.3435C12.4608 34.6056 13.7647 34.9287 15.0346 35.3311C15.7339 35.5527 16.4576 35.7845 17.1108 36.1191L17.3825 35.5693L18.0386 34.6245C17.8905 34.587 17.802 34.4665 17.6981 34.3633C16.9405 33.6106 15.9252 32.8553 14.8069 32.8531C14.6019 32.8851 14.4077 32.9064 14.2001 32.9068Z" fill="#FDC13E"/>
<path d="M9.3999 33.5717L9.5418 34.0806C10.0773 34.0958 10.6297 34.2383 11.1542 34.3434C12.4609 34.6055 13.7648 34.9286 15.0347 35.3311C15.734 35.5527 16.4577 35.7845 17.1109 36.1191L17.3826 35.5693C16.9145 35.3621 16.3927 35.2248 15.9035 35.0703C14.5379 34.6386 13.1589 34.2934 11.7581 33.9919C10.9885 33.8263 10.1857 33.6222 9.3999 33.5717Z" fill="#FFFFFE"/>
<path d="M42.7958 45.5748L42.863 45.5088L42.8219 45.4805L42.7475 45.4167C42.5256 45.4167 41.9413 45.4789 41.7775 45.3711C41.5881 45.3705 41.1375 45.4165 40.9921 45.3255C40.6327 45.3287 40.2515 45.3082 39.9066 45.2343C39.7346 45.1974 39.5243 45.2635 39.3522 45.2269C39.151 45.1841 38.9419 45.2222 38.7517 45.1805C38.4626 45.1172 38.1662 45.1417 37.8667 45.135C37.778 45.133 37.725 45.0971 37.6434 45.0953C35.359 45.0441 33.0363 45.0689 30.7624 45.1334C30.0855 45.1526 29.3693 45.1228 28.7043 45.2221C28.4743 45.2564 28.2161 45.196 27.9878 45.2347C27.2179 45.3655 26.3974 45.2958 25.6323 45.4541C25.4861 45.4843 25.2856 45.4563 25.1329 45.4601C25.0557 45.462 25.0107 45.5015 24.9344 45.5034C24.5805 45.5122 24.219 45.5211 23.8769 45.5903C23.8027 45.6054 23.6605 45.5738 23.5993 45.5995C23.5882 45.6042 23.4934 45.6915 23.484 45.6946C23.4341 45.7115 23.2767 45.6963 23.2166 45.6968C22.9455 45.6991 22.6592 45.683 22.3906 45.718C22.073 45.7494 21.6688 45.6728 21.3816 45.8061C21.8481 45.8597 22.3164 45.852 22.7852 45.856C22.9821 45.8578 23.231 45.8281 23.4168 45.878C23.4789 45.8947 23.5015 45.9441 23.5411 45.9909L23.8191 46.0383C24.1561 46.0896 24.4919 46.2479 24.8109 46.3652C25.3086 46.5483 25.8106 46.7178 26.3224 46.8588C27.5582 47.1996 28.8031 47.333 30.0574 47.5675C29.6389 47.635 29.2204 47.6994 28.8001 47.7564C28.6576 47.7756 28.3768 47.7764 28.2576 47.8456L28.323 47.8908L28.1266 47.9136C29.7668 48.0142 31.4503 47.9411 33.0928 47.8892C33.4446 47.8782 33.7966 47.8687 34.1481 47.8484C34.3149 47.8387 34.5141 47.8481 34.665 47.7711C34.8694 47.603 35.1703 47.5129 35.4123 47.4057C36.9033 46.7458 38.5862 46.2167 40.1927 45.9208C41.0446 45.7639 41.8989 45.719 42.7475 45.5828L42.7958 45.5748Z" fill="#FFFFFE"/>
<path d="M55.8259 29.1418C55.1561 29.0091 54.4191 28.8931 53.7368 29.0087C52.0607 29.2927 51.1668 30.2562 50.0119 31.3916C49.8757 31.3635 49.8592 31.3415 49.7569 31.2455L49.3896 30.9003C48.8981 30.5792 48.2736 30.3621 47.6804 30.487C47.1148 30.6061 46.367 30.8731 45.966 31.3057L45.9894 31.3731C45.9203 31.4701 45.8573 31.5555 45.819 31.6695L45.8887 31.6923L45.958 31.6471C46.1146 31.6427 46.1849 31.6531 46.3276 31.693L46.5755 31.7068L46.6176 31.7326C47.7439 31.9916 48.5891 32.4567 49.2095 33.4446L49.2771 33.5558C48.4876 32.8409 47.5971 32.2101 46.4736 32.257L46.1197 32.2998L46.0377 32.3123C45.033 32.4731 44.1028 33.3132 43.5308 34.1034L43.1515 34.7026L42.9519 35.1491C42.0426 35.025 41.1245 35.0029 40.2205 35.1822C38.0315 35.6164 36.151 36.9506 33.9797 37.4863L35.3176 37.5456L39.3544 37.594L45.8867 37.7293L45.879 37.7026L45.6605 37.6109C46.6086 37.3423 47.4852 36.8689 48.3679 36.4446C50.4638 35.4375 52.5647 34.5844 54.9191 34.4793L55.066 33.9541C55.2283 33.2452 55.402 32.553 55.5226 31.8343C55.6724 30.942 55.7479 30.0424 55.8259 29.1418Z" fill="#FDC13E"/>
<path d="M47.9041 36.2147C47.7274 36.2175 47.5477 36.3692 47.3902 36.4457L47.2519 36.5255L47.1824 36.5588L47.0897 36.6167L46.8539 36.7748C46.8093 36.8078 46.7549 36.8256 46.7086 36.8561L46.6509 36.9131L46.6099 36.9273C46.5143 36.9628 46.4333 37.0371 46.3391 37.0841L46.1379 37.2171C46.0606 37.2699 46.0064 37.2874 45.9191 37.3155L45.7705 37.3722C45.4684 37.4953 45.2102 37.3949 44.9069 37.4237L44.7338 37.4233L44.6181 37.4358L44.5278 37.4452C44.351 37.4653 44.1952 37.4939 44.0183 37.5029L43.8791 37.5291C43.7817 37.5439 43.6882 37.5406 43.591 37.5628C43.3223 37.624 42.9362 37.5761 42.655 37.5743L42.6088 37.5291L42.5569 37.5341C42.2776 37.5567 42.0064 37.5259 41.7311 37.5403C41.4818 37.5533 41.2277 37.5226 40.979 37.5465C40.8269 37.5613 40.6741 37.5322 40.5185 37.5473C40.437 37.5552 40.4692 37.5516 40.3698 37.5396C40.241 37.524 40.1246 37.5484 39.9914 37.5345C39.7734 37.5118 39.5645 37.5368 39.3543 37.5939L45.8866 37.7292L45.879 37.7025L45.6605 37.6108C45.8108 37.4497 46.0183 37.3664 46.2052 37.2512C46.747 36.9175 47.4187 36.6113 47.9041 36.2147Z" fill="#FDC13E"/>
<path d="M55.0659 33.954C54.5265 34.0053 53.9782 34.0162 53.4418 34.087C52.1203 34.2617 50.9091 34.7086 49.7171 35.2851C49.3346 35.47 48.9548 35.6653 48.5831 35.8705C48.3834 35.9808 48.1252 36.1737 47.904 36.2147C47.4187 36.6113 46.7469 36.9175 46.2052 37.2512C46.0183 37.3664 45.8108 37.4497 45.6604 37.6108C46.6085 37.3422 47.4851 36.8688 48.3678 36.4445C50.4637 35.4374 52.5646 34.5843 54.919 34.4792L55.0659 33.954Z" fill="#FFFFFE"/>
<path d="M28.3733 14.0667L27.002 13.6638L27.4577 14.2319C28.1307 15.1318 29.0359 16.5708 28.8732 17.7393C28.8211 18.1127 28.6554 18.3697 28.3519 18.5915C27.6576 19.0986 26.8415 19.4605 26.1323 19.9619C23.6801 21.6957 21.6699 23.8645 20.6616 26.7153C20.3831 27.503 20.2159 28.3203 20.0756 29.1415C19.9209 30.4866 19.9855 31.8138 20.2165 33.1484C19.6406 33.3328 19.2214 33.5865 18.7398 33.9406L18.0386 34.6245L17.3825 35.5693L17.1108 36.1191C16.9339 36.5612 16.7567 36.9844 16.6694 37.4535C16.6487 37.6672 16.6029 37.9048 16.615 38.1175L16.5742 38.3298C16.5773 38.5956 16.5822 38.8502 16.6258 39.1132L16.7386 39.4003C16.7807 39.4546 16.8183 39.4958 16.8675 39.5429L16.9536 39.4157C16.9139 39.1782 16.9068 38.9128 16.9625 38.6783C16.97 38.5397 17.0121 38.4385 17.0654 38.3128L17.1657 38.1063L17.2452 37.8998C17.336 37.7696 17.4429 37.7133 17.5797 37.6353C17.9394 37.6922 18.308 37.669 18.671 37.6628C19.1924 37.6538 19.7139 37.6478 20.2353 37.6434C21.1479 37.6357 22.0605 37.6287 22.973 37.6153C23.5145 37.6074 24.0688 37.6195 24.6066 37.5561C24.9675 37.5136 25.2558 37.4297 25.5847 37.2824C26.3043 37.5527 26.9537 37.8523 27.5982 38.2702L27.4855 37.6069C27.3698 36.9762 27.1276 36.4047 26.8319 35.8368L26.7713 35.7414C26.3998 35.1634 25.9687 34.6501 25.3909 34.263C24.5148 33.676 23.2651 33.4137 22.2391 33.1862C22.4257 32.2409 22.7828 31.3023 23.3566 30.5167C25.4017 27.7166 29.2614 27.0233 32.4691 26.424C32.6927 26.3823 32.7026 26.3669 32.8226 26.1875L32.8547 26.0976L32.9208 26.1122C32.8384 26.442 32.7671 26.7903 32.594 27.0868C32.3833 27.4474 32.0578 27.7446 31.7604 28.0352C31.5881 28.2035 31.2607 28.4521 31.2178 28.6903C31.2042 28.7662 31.2721 28.819 31.3142 28.8774C31.7773 29.0943 32.5263 29.0337 33.0234 28.977C34.3594 28.8244 35.6635 27.9725 36.4666 26.9286C36.7182 26.6015 36.8955 26.2227 37.159 25.9054L37.1871 25.8725C38.3488 25.6307 39.5155 25.4329 40.6687 25.1494C42.3737 24.7302 44.0083 24.1748 45.6124 23.4681C46.6899 22.9242 48.0601 22.405 48.7642 21.3849C48.7315 21.2703 48.6829 21.1782 48.6251 21.0752C47.9907 20.749 47.4495 20.5821 47.0773 19.9225C46.9323 19.6655 46.8279 19.3847 46.6773 19.131C46.4725 18.7863 46.1366 18.5291 45.7996 18.3186C44.6837 17.6218 43.3099 17.3374 42.0497 17.0096C40.735 16.73 39.4669 16.6879 38.1269 16.7007C37.2407 16.7092 36.3545 16.7231 35.4717 16.8091C34.6716 16.8869 33.8766 17.0088 33.0776 17.0948C32.562 16.8108 32.1068 16.3739 31.6452 16.0116C30.6272 15.2126 29.5835 14.548 28.3733 14.0667Z" fill="#091E3B"/>
<path d="M25.5847 37.2824C25.1356 37.1578 24.6807 37.0204 24.2164 36.9644C23.7246 36.9051 22.999 37.0177 22.5557 36.8455C22.2405 36.723 21.9906 36.4813 21.7905 36.2183C21.4832 36.6256 21.1456 36.9346 20.6109 37.0165C20.302 37.0638 19.9693 37.0259 19.6575 37.0136C18.8597 36.9819 18.2559 37.2531 17.5797 37.6353C17.9394 37.6922 18.308 37.6691 18.671 37.6628C19.1923 37.6539 19.7139 37.6478 20.2353 37.6435C21.1479 37.6357 22.0605 37.6288 22.9729 37.6154C23.5144 37.6074 24.0688 37.6196 24.6066 37.5561C24.9675 37.5136 25.2558 37.4298 25.5847 37.2824Z" fill="#FFFFFE"/>
<path d="M41.2885 18.7848C40.4703 18.7144 39.4551 18.8867 38.7478 19.3117C39.8904 19.6193 40.9431 20.1082 42.1079 20.3482L43.1722 20.4438C43.5966 20.4539 44.3667 20.4292 44.6812 20.1333L44.6726 20.0193C44.4166 19.7284 44.0317 19.5375 43.6778 19.3836C42.8855 19.0392 42.1493 18.8575 41.2885 18.7848Z" fill="#FFFFFE"/>
<path d="M48.052 21.7086C47.4405 21.7665 46.7319 21.9094 46.1246 21.8546C45.4434 21.7933 44.832 21.5625 44.1731 21.4133C43.3246 21.2211 42.2332 21.2399 41.466 21.6931C41.1246 21.8949 40.805 22.2249 40.5522 22.5251L40.4026 22.7228C40.6115 22.772 40.8823 22.708 41.0949 22.6846C41.5592 22.6336 42.0244 22.5887 42.4902 22.554C43.9722 22.4437 45.4775 22.476 46.9644 22.4109C47.3625 22.2084 47.7037 21.9874 48.052 21.7086Z" fill="#FFFFFE"/>
<path d="M36.6414 23.1534C35.5427 23.293 34.5818 23.6717 33.8098 24.4825C33.5597 24.7453 33.3536 25.0417 33.0991 25.3045C32.4771 25.2414 31.938 24.9997 31.388 24.7211L31.3458 24.7257C30.9906 24.7597 30.6351 24.6884 30.2763 24.7067C28.9602 24.7736 27.7226 24.9953 26.4487 25.3194C26.1345 25.3993 25.8021 25.4457 25.506 25.5793C25.9071 25.6573 26.3354 25.724 26.7181 25.8674L24.7413 27.0176L24.9821 27.1271C26.1622 26.2597 30.1165 26.0978 31.6145 26.1849L31.6521 26.2692C32.0401 26.2097 32.4322 26.1127 32.8227 26.1874L32.8548 26.0976L32.9208 26.1122L33.2555 25.3862C33.6725 24.6544 34.5434 23.9433 35.3101 23.5907C35.7315 23.3969 36.1953 23.2788 36.6414 23.1534Z" fill="#37CDE4"/>
<path d="M31.6521 26.2693L31.6145 26.1849C30.1165 26.0978 26.1622 26.2598 24.9821 27.1271L24.7412 27.0176C24.1203 27.4967 23.614 27.9482 23.1254 28.5686C21.7903 30.2918 21.7541 32.4676 21.8408 34.542L21.8905 34.5456C21.9306 34.0324 21.9285 33.5098 21.9983 32.9998C22.1091 32.1891 22.3972 31.3819 22.8546 30.6986C24.8467 27.7229 28.3378 26.9315 31.6521 26.2693Z" fill="#FFFFFE"/>
<path d="M46.9644 22.4109C45.4774 22.476 43.9722 22.4436 42.4902 22.554C42.0244 22.5886 41.5592 22.6336 41.0949 22.6846C40.8822 22.7079 40.6114 22.7719 40.4025 22.7228C39.9617 23.206 39.6452 23.7906 39.1754 24.2596C38.6707 24.7635 38.051 25.0924 37.5103 25.5458C40.1475 25.0027 42.748 24.3856 45.2262 23.3168C45.8021 23.0685 46.4623 22.7893 46.9644 22.4109Z" fill="#37CDE4"/>
<path d="M31.3879 24.7211C31.0661 24.548 30.7386 24.3786 30.4368 24.1723C29.9516 23.8407 29.4901 23.459 28.9323 23.2492C28.1743 22.9642 27.3781 23.0526 26.6143 23.2709C24.5999 23.8464 22.8297 25.236 21.6692 26.9437C22.6929 26.0346 23.9788 25.5019 25.376 25.5719L25.5059 25.5794C25.802 25.4458 26.1345 25.3994 26.4487 25.3195C27.7226 24.9954 28.9602 24.7737 30.2763 24.7067C30.6351 24.6884 30.9906 24.7597 31.3458 24.7258L31.3879 24.7211Z" fill="#FFFFFE"/>
<path d="M53.2466 28.2232L53.2252 28.1482C53.1727 27.9487 53.196 27.6998 53.1938 27.4937C53.1909 27.2132 53.1654 26.9334 53.1644 26.6542L53.1195 25.6414L52.9672 24.1587L52.8352 23.3479C52.7198 22.8131 52.6819 22.2164 52.504 21.7064C52.4734 21.6182 52.4668 21.525 52.4696 21.4328L52.4245 21.3644C52.3289 21.1423 52.2749 20.85 52.1954 20.6144C52.1106 20.363 51.9793 20.1094 51.8815 19.8601C51.5883 19.1124 51.2899 18.346 50.9161 17.633C48.8431 13.6781 45.4367 10.4193 41.3632 8.50813C40.3053 8.01175 39.1748 7.58606 38.0357 7.31931L37.8261 7.26642C37.7226 7.24471 37.6334 7.2024 37.5275 7.18325C37.4388 7.1672 37.362 7.14312 37.2764 7.11494C37.2123 7.09378 37.1524 7.08612 37.0885 7.06907L37.0194 7.04654C36.9586 7.03022 36.9065 7.02083 36.846 7.00095C36.7504 6.96948 36.7769 6.97787 36.6728 6.97787L36.6266 6.93228C36.5113 6.93228 36.4709 6.95143 36.3725 6.88668C36.2624 6.88668 36.2361 6.90337 36.1415 6.84108C36.0413 6.84108 35.9606 6.86771 35.8874 6.79548C35.7849 6.79548 35.7317 6.82412 35.6565 6.74989C35.5467 6.74989 35.4118 6.78199 35.3331 6.70429C35.1971 6.70429 35.0548 6.73402 34.9404 6.65869H34.6402L34.594 6.61309C34.4733 6.61309 34.2115 6.64592 34.132 6.5675C33.9447 6.5675 33.1677 6.61875 33.0695 6.5219C32.8692 6.52199 32.0444 6.46326 31.9378 6.5675C31.7247 6.56759 30.8 6.50603 30.6905 6.61309C30.5598 6.61318 30.2698 6.57324 30.1824 6.65869C30.0461 6.65878 29.7175 6.61674 29.628 6.70429C29.5185 6.70447 29.3835 6.67283 29.3047 6.74989C29.1733 6.75007 29.0461 6.72271 28.9351 6.79548C28.8257 6.79576 28.7982 6.77943 28.7041 6.84108C28.5898 6.84135 28.525 6.82239 28.427 6.88668C28.3176 6.88695 28.29 6.87063 28.196 6.93228C28.0866 6.93255 28.0591 6.91623 27.965 6.97787L27.8883 6.98244L27.2833 7.08402L26.324 7.33572C25.0367 7.67424 23.7532 8.25588 22.5849 8.87975C21.6811 9.36236 20.7871 9.86876 19.9509 10.4603C17.4962 12.1966 15.2586 14.6447 13.7625 17.2349C12.6188 19.2148 11.7689 21.4427 11.3247 23.6799C10.9883 25.375 10.8801 27.0946 10.8728 28.8179C11.2804 28.9017 11.6845 28.9912 12.0671 29.1586C13.0116 29.572 13.667 30.3238 14.2206 31.1607C14.5477 31.6549 14.7813 32.2585 14.8068 32.8531C15.9251 32.8553 16.9405 33.6106 17.6981 34.3633C17.8019 34.4665 17.8904 34.587 18.0385 34.6245L18.7398 33.9406C19.2213 33.5865 19.6406 33.3328 20.2164 33.1484C19.9855 31.8138 19.9209 30.4866 20.0755 29.1415C19.6231 29.515 19.1607 29.8814 18.7911 30.3389C18.3829 30.8446 18.102 31.4489 17.8203 32.0286L17.7256 32.0717L17.6152 32.2192C17.4523 32.3878 17.3176 32.379 17.1092 32.4222C16.9833 32.4483 16.947 32.472 16.8089 32.4678L16.7627 32.4222C16.6749 32.4244 16.6034 32.4309 16.5187 32.4057C16.4329 32.3801 16.4843 32.3877 16.3744 32.3801L16.3008 32.3766L16.2546 32.331L16.1388 32.3081L16.0698 32.2855C15.7713 32.1946 15.601 32.0441 15.3538 31.8751C14.9744 31.6158 14.5745 31.104 14.46 30.6553L14.4525 30.6207L14.4068 30.5751L14.4063 30.4839C14.3487 30.3983 14.3605 30.3978 14.3601 30.3015C14.2857 30.2273 14.3142 30.1742 14.3139 30.0735C14.2488 29.9768 14.268 29.9127 14.2677 29.7999C14.1864 29.7189 14.2217 29.5492 14.2215 29.4351C14.1479 29.3258 14.1755 29.1571 14.1753 29.0248C14.0861 28.9358 14.1305 28.4461 14.1303 28.2997C14.1296 27.7459 14.1778 27.1433 14.1063 26.6002C14.3445 23.5551 15.3496 20.3746 17.1005 17.8372C19.0695 14.9838 21.7382 12.5951 24.9405 11.1567C26.3031 10.5447 27.813 10.1133 29.286 9.84788C30.207 9.68199 31.178 9.64707 32.1133 9.64515C35.8508 9.63758 39.4217 10.6896 42.5091 12.79C44.257 13.9791 45.674 15.4952 46.8525 17.2293C47.3845 18.0122 47.8464 18.7589 48.2267 19.6272C48.3841 19.9865 48.6118 20.4355 48.683 20.8172C48.6104 20.8896 48.6307 20.976 48.6251 21.0752C48.6828 21.1782 48.7315 21.2704 48.7641 21.3849L48.7758 21.182C48.8008 21.3033 48.8061 21.3644 48.7883 21.4863L48.7758 21.6156L48.8204 21.6688C48.8798 21.7423 48.8872 21.7765 48.914 21.8659C49.5101 23.8576 49.746 25.9236 49.6781 27.9988C49.6599 28.5551 49.5769 29.1033 49.5267 29.6567C49.4936 30.0211 49.5417 30.5703 49.3895 30.9003L49.7568 31.2455C49.8591 31.3415 49.8756 31.3635 50.0118 31.3916C50.0151 31.0662 50.2092 30.7429 50.3514 30.4564C50.5144 30.284 50.6382 30.0352 50.7906 29.8455C51.4563 29.0164 52.2029 28.4901 53.2466 28.2232Z" fill="#FFFFFE"/>
<path d="M50.3516 30.4563C50.1891 30.492 50.059 30.5404 49.9697 30.689C49.8649 30.8634 49.8722 31.0899 49.757 31.2454C49.8593 31.3414 49.8758 31.3634 50.012 31.3915C50.0153 31.0661 50.2094 30.7428 50.3516 30.4563Z" fill="#FFFFFE"/>
<path d="M48.6252 21.0751C48.6308 20.9759 48.6105 20.8895 48.6831 20.8171C48.612 20.4355 48.3842 19.9864 48.2268 19.6271C47.8465 18.7588 47.3847 18.0121 46.8526 17.2292C45.6742 15.4951 44.2572 13.979 42.5092 12.7899C39.4218 10.6895 35.8509 9.63749 32.1134 9.64506C31.1781 9.64698 30.2072 9.6819 29.2861 9.84779C27.8131 10.1132 26.3032 10.5446 24.9406 11.1566C21.7383 12.595 19.0696 14.9837 17.1006 17.8371C15.3497 20.3745 14.3446 23.555 14.1065 26.6001C14.178 27.1432 14.1297 27.7459 14.1305 28.2996C14.1307 28.446 14.0862 28.9357 14.1755 29.0247C14.1757 29.157 14.148 29.3257 14.2217 29.4351C14.2218 29.5491 14.1866 29.7188 14.2679 29.7998C14.2681 29.9126 14.2489 29.9767 14.3141 30.0734C14.3143 30.1741 14.2858 30.2272 14.3602 30.3014C14.3606 30.3977 14.3488 30.3982 14.4064 30.4838L14.4069 30.575L14.4526 30.6206L14.4601 30.6553C14.5746 31.1039 14.9745 31.6157 15.3539 31.875C15.6011 32.044 15.7714 32.1945 16.0699 32.2854L16.1389 32.308L16.2547 32.331L16.3009 32.3766L16.3745 32.38C16.4844 32.3876 16.433 32.38 16.5188 32.4057C16.6035 32.4308 16.675 32.4243 16.7628 32.4222L16.809 32.4678C16.9472 32.472 16.9835 32.4482 17.1093 32.4222C17.3177 32.3789 17.4524 32.3877 17.6153 32.2191L17.7257 32.0716L17.8204 32.0286C18.1021 31.4488 18.383 30.8445 18.7913 30.3388C19.1608 29.8813 19.6232 29.5149 20.0757 29.1414C20.2159 28.3202 20.3831 27.5029 20.6617 26.7153C21.67 23.8644 23.6802 21.6957 26.1324 19.9618C26.8416 19.4604 27.6577 19.0985 28.352 18.5914C28.6555 18.3696 28.8212 18.1126 28.8732 17.7393C29.036 16.5707 28.1308 15.1317 27.4578 14.2318L27.0021 13.6638L28.3734 14.0667C29.5835 14.548 30.6273 15.2125 31.6453 16.0116C32.1069 16.3738 32.5621 16.8107 33.0777 17.0947C33.8767 17.0087 34.6717 16.8869 35.4718 16.809C36.3546 16.7231 37.2408 16.7091 38.127 16.7006C39.4669 16.6878 40.7351 16.7299 42.0498 17.0095C43.31 17.3374 44.6837 17.6217 45.7996 18.3185C46.1367 18.529 46.4726 18.7862 46.6773 19.1309C46.828 19.3846 46.9323 19.6654 47.0774 19.9225C47.4496 20.582 47.9907 20.749 48.6252 21.0751Z" fill="#FFFFFE"/>
<circle cx="32" cy="27" r="22.5" stroke="#0F766E" stroke-width="3"/>
<path d="M63.592 41.24C63.24 41.24 62.968 41.144 62.776 40.952C62.6 40.744 62.512 40.464 62.512 40.112V30.128C62.512 29.376 62.872 29 63.592 29C63.928 29 64.192 29.104 64.384 29.312C64.576 29.504 64.672 29.776 64.672 30.128V31.352C65.728 29.944 67.16 29.24 68.968 29.24H69.544C69.928 29.24 70.224 29.32 70.432 29.48C70.64 29.64 70.744 29.872 70.744 30.176C70.744 30.464 70.632 30.688 70.408 30.848C70.2 31.008 69.912 31.088 69.544 31.088H68.824C67.56 31.088 66.56 31.464 65.824 32.216C65.088 32.952 64.72 33.96 64.72 35.24V40.112C64.72 40.464 64.616 40.744 64.408 40.952C64.216 41.144 63.944 41.24 63.592 41.24ZM81.5116 41.24C80.1836 41.24 79.0236 40.992 78.0316 40.496C77.0396 40 76.2796 39.288 75.7516 38.36C75.2236 37.432 74.9596 36.344 74.9596 35.096C74.9596 33.864 75.2236 32.792 75.7516 31.88C76.2796 30.952 77.0396 30.24 78.0316 29.744C79.0236 29.248 80.1836 29 81.5116 29C82.6956 29 83.7356 29.176 84.6316 29.528C85.5276 29.88 86.2236 30.384 86.7196 31.04C86.8796 31.216 86.9596 31.424 86.9596 31.664C86.9596 31.952 86.8076 32.208 86.5036 32.432C86.3756 32.544 86.1996 32.6 85.9756 32.6C85.6236 32.6 85.3036 32.456 85.0156 32.168C84.2316 31.288 83.0636 30.848 81.5116 30.848C80.1356 30.848 79.0716 31.216 78.3196 31.952C77.5676 32.688 77.1916 33.736 77.1916 35.096C77.1916 36.456 77.5676 37.512 78.3196 38.264C79.0876 39.016 80.1516 39.392 81.5116 39.392C82.2636 39.392 82.9596 39.28 83.5996 39.056C84.2396 38.816 84.7836 38.472 85.2316 38.024C85.5676 37.688 85.8876 37.52 86.1916 37.52C86.3836 37.52 86.5756 37.592 86.7676 37.736C87.0236 37.976 87.1516 38.24 87.1516 38.528C87.1516 38.768 87.0636 38.976 86.8876 39.152C86.1196 39.872 85.3036 40.4 84.4396 40.736C83.5756 41.072 82.5996 41.24 81.5116 41.24ZM97.1693 41.24C95.6173 41.24 94.3853 40.888 93.4733 40.184C92.5773 39.48 92.1293 38.528 92.1293 37.328C92.1293 36.128 92.6013 35.176 93.5453 34.472C94.5053 33.768 95.8093 33.416 97.4573 33.416C98.3213 33.416 99.0893 33.528 99.7613 33.752C100.449 33.976 101.001 34.28 101.417 34.664V33.464C101.417 32.6 101.137 31.944 100.577 31.496C100.033 31.032 99.2253 30.8 98.1533 30.8C96.7293 30.8 95.4973 31.128 94.4573 31.784C94.1533 31.96 93.8893 32.048 93.6653 32.048C93.4573 32.048 93.2493 31.96 93.0413 31.784C92.8653 31.608 92.7773 31.4 92.7773 31.16C92.7773 30.888 92.9133 30.64 93.1853 30.416C93.7613 29.984 94.4893 29.64 95.3693 29.384C96.2493 29.128 97.1693 29 98.1293 29C99.8733 29 101.233 29.4 102.209 30.2C103.185 30.984 103.673 32.088 103.673 33.512V40.16C103.673 40.512 103.577 40.784 103.385 40.976C103.209 41.152 102.945 41.24 102.593 41.24C102.241 41.24 101.969 41.152 101.777 40.976C101.585 40.784 101.489 40.528 101.489 40.208V39.536C100.529 40.672 99.0893 41.24 97.1693 41.24ZM97.5533 39.536C98.7213 39.536 99.6573 39.328 100.361 38.912C101.081 38.48 101.441 37.92 101.441 37.232C101.441 36.56 101.097 36.04 100.409 35.672C99.7373 35.288 98.8013 35.096 97.6013 35.096C96.5613 35.096 95.7613 35.288 95.2013 35.672C94.6413 36.056 94.3613 36.608 94.3613 37.328C94.3613 38.032 94.6333 38.576 95.1773 38.96C95.7373 39.344 96.5293 39.536 97.5533 39.536Z" fill="#0F766E"/>
<defs>
<linearGradient id="paint0_linear_2_66" x1="13.8012" y1="38.1779" x2="13.8605" y2="37.3198" gradientUnits="userSpaceOnUse">
<stop stop-color="#1490B7"/>
<stop offset="1" stop-color="#37CDE4"/>
</linearGradient>
<linearGradient id="paint1_linear_2_66" x1="41.7114" y1="48.3586" x2="40.4046" y2="45.3218" gradientUnits="userSpaceOnUse">
<stop stop-color="#1490B7"/>
<stop offset="1" stop-color="#37CDE4"/>
</linearGradient>
</defs>
</svg>
